{
	"asset":{
		"generator":"Khronos glTF Blender I/O v3.5.30",
		"version":"2.0"
	},
	"scene":0,
	"scenes":[
		{
			"name":"Scene",
			"nodes":[
				0,
				1
			]
		}
	],
	"nodes":[
		{
			"mesh":0,
			"name":"hitam",
			"scale":[
				0.2359883189201355,
				0.5400521755218506,
				0.2359883189201355
			]
		},
		{
			"mesh":1,
			"name":"merah",
			"scale":[
				0.2097911387681961,
				0.4645138382911682,
				0.2097911387681961
			]
		}
	],
	"animations":[
		{
			"channels":[
				{
					"sampler":0,
					"target":{
						"node":0,
						"path":"translation"
					}
				},
				{
					"sampler":1,
					"target":{
						"node":0,
						"path":"rotation"
					}
				},
				{
					"sampler":2,
					"target":{
						"node":0,
						"path":"scale"
					}
				}
			],
			"name":"naik",
			"samplers":[
				{
					"input":12,
					"interpolation":"LINEAR",
					"output":13
				},
				{
					"input":12,
					"interpolation":"LINEAR",
					"output":14
				},
				{
					"input":12,
					"interpolation":"LINEAR",
					"output":15
				}
			]
		},
		{
			"channels":[
				{
					"sampler":0,
					"target":{
						"node":1,
						"path":"rotation"
					}
				}
			],
			"name":"putar",
			"samplers":[
				{
					"input":16,
					"interpolation":"LINEAR",
					"output":17
				}
			]
		},
		{
			"channels":[
				{
					"sampler":0,
					"target":{
						"node":1,
						"path":"translation"
					}
				},
				{
					"sampler":1,
					"target":{
						"node":1,
						"path":"rotation"
					}
				},
				{
					"sampler":2,
					"target":{
						"node":1,
						"path":"scale"
					}
				}
			],
			"name":"up",
			"samplers":[
				{
					"input":16,
					"interpolation":"LINEAR",
					"output":18
				},
				{
					"input":16,
					"interpolation":"LINEAR",
					"output":19
				},
				{
					"input":16,
					"interpolation":"LINEAR",
					"output":20
				}
			]
		}
	],
	"materials":[
		{
			"doubleSided":true,
			"name":"Material.005",
			"pbrMetallicRoughness":{
				"baseColorFactor":[
					0.027209972962737083,
					0.027209972962737083,
					0.027209972962737083,
					1
				],
				"metallicFactor":0,
				"roughnessFactor":0.5
			}
		},
		{
			"doubleSided":true,
			"name":"Material.003",
			"pbrMetallicRoughness":{
				"baseColorFactor":[
					0.800000011920929,
					0.800000011920929,
					0.800000011920929,
					1
				],
				"metallicFactor":0,
				"roughnessFactor":0.5
			}
		},
		{
			"doubleSided":true,
			"name":"Material.004",
			"pbrMetallicRoughness":{
				"baseColorFactor":[
					0.8000000715255737,
					0.012447033077478409,
					0.0625673234462738,
					1
				],
				"metallicFactor":0,
				"roughnessFactor":0.5
			}
		}
	],
	"meshes":[
		{
			"name":"Cylinder",
			"primitives":[
				{
					"attributes":{
						"POSITION":0,
						"TEXCOORD_0":1,
						"NORMAL":2
					},
					"indices":3,
					"material":0
				}
			]
		},
		{
			"name":"Cylinder.001",
			"primitives":[
				{
					"attributes":{
						"POSITION":4,
						"TEXCOORD_0":5,
						"NORMAL":6
					},
					"indices":7,
					"material":1
				},
				{
					"attributes":{
						"POSITION":8,
						"TEXCOORD_0":9,
						"NORMAL":10
					},
					"indices":11,
					"material":2
				}
			]
		}
	],
	"accessors":[
		{
			"bufferView":0,
			"componentType":5126,
			"count":2400,
			"max":[
				1.2217320203781128,
				1.674186110496521,
				1.2217320203781128
			],
			"min":[
				-1.2217320203781128,
				-1,
				-1.2217320203781128
			],
			"type":"VEC3"
		},
		{
			"bufferView":1,
			"componentType":5126,
			"count":2400,
			"type":"VEC2"
		},
		{
			"bufferView":2,
			"componentType":5126,
			"count":2400,
			"type":"VEC3"
		},
		{
			"bufferView":3,
			"componentType":5123,
			"count":9600,
			"type":"SCALAR"
		},
		{
			"bufferView":4,
			"componentType":5126,
			"count":230,
			"max":[
				1.04234778881073,
				0.7949663996696472,
				1
			],
			"min":[
				-1.04234778881073,
				-1,
				-1
			],
			"type":"VEC3"
		},
		{
			"bufferView":5,
			"componentType":5126,
			"count":230,
			"type":"VEC2"
		},
		{
			"bufferView":6,
			"componentType":5126,
			"count":230,
			"type":"VEC3"
		},
		{
			"bufferView":7,
			"componentType":5123,
			"count":666,
			"type":"SCALAR"
		},
		{
			"bufferView":8,
			"componentType":5126,
			"count":230,
			"max":[
				1.04234778881073,
				1,
				1
			],
			"min":[
				-1.04234778881073,
				-0.794966459274292,
				-1
			],
			"type":"VEC3"
		},
		{
			"bufferView":9,
			"componentType":5126,
			"count":230,
			"type":"VEC2"
		},
		{
			"bufferView":10,
			"componentType":5126,
			"count":230,
			"type":"VEC3"
		},
		{
			"bufferView":11,
			"componentType":5123,
			"count":666,
			"type":"SCALAR"
		},
		{
			"bufferView":12,
			"componentType":5126,
			"count":101,
			"max":[
				4.166666666666667
			],
			"min":[
				0
			],
			"type":"SCALAR"
		},
		{
			"bufferView":13,
			"componentType":5126,
			"count":101,
			"type":"VEC3"
		},
		{
			"bufferView":14,
			"componentType":5126,
			"count":101,
			"type":"VEC4"
		},
		{
			"bufferView":15,
			"componentType":5126,
			"count":101,
			"type":"VEC3"
		},
		{
			"bufferView":16,
			"componentType":5126,
			"count":100,
			"max":[
				4.166666666666667
			],
			"min":[
				0.041666666666666664
			],
			"type":"SCALAR"
		},
		{
			"bufferView":17,
			"componentType":5126,
			"count":100,
			"type":"VEC4"
		},
		{
			"bufferView":18,
			"componentType":5126,
			"count":100,
			"type":"VEC3"
		},
		{
			"bufferView":19,
			"componentType":5126,
			"count":100,
			"type":"VEC4"
		},
		{
			"bufferView":20,
			"componentType":5126,
			"count":100,
			"type":"VEC3"
		}
	],
	"bufferViews":[
		{
			"buffer":0,
			"byteLength":28800,
			"byteOffset":0,
			"target":34962
		},
		{
			"buffer":0,
			"byteLength":19200,
			"byteOffset":28800,
			"target":34962
		},
		{
			"buffer":0,
			"byteLength":28800,
			"byteOffset":48000,
			"target":34962
		},
		{
			"buffer":0,
			"byteLength":19200,
			"byteOffset":76800,
			"target":34963
		},
		{
			"buffer":0,
			"byteLength":2760,
			"byteOffset":96000,
			"target":34962
		},
		{
			"buffer":0,
			"byteLength":1840,
			"byteOffset":98760,
			"target":34962
		},
		{
			"buffer":0,
			"byteLength":2760,
			"byteOffset":100600,
			"target":34962
		},
		{
			"buffer":0,
			"byteLength":1332,
			"byteOffset":103360,
			"target":34963
		},
		{
			"buffer":0,
			"byteLength":2760,
			"byteOffset":104692,
			"target":34962
		},
		{
			"buffer":0,
			"byteLength":1840,
			"byteOffset":107452,
			"target":34962
		},
		{
			"buffer":0,
			"byteLength":2760,
			"byteOffset":109292,
			"target":34962
		},
		{
			"buffer":0,
			"byteLength":1332,
			"byteOffset":112052,
			"target":34963
		},
		{
			"buffer":0,
			"byteLength":404,
			"byteOffset":113384
		},
		{
			"buffer":0,
			"byteLength":1212,
			"byteOffset":113788
		},
		{
			"buffer":0,
			"byteLength":1616,
			"byteOffset":115000
		},
		{
			"buffer":0,
			"byteLength":1212,
			"byteOffset":116616
		},
		{
			"buffer":0,
			"byteLength":400,
			"byteOffset":117828
		},
		{
			"buffer":0,
			"byteLength":1600,
			"byteOffset":118228
		},
		{
			"buffer":0,
			"byteLength":1200,
			"byteOffset":119828
		},
		{
			"buffer":0,
			"byteLength":1600,
			"byteOffset":121028
		},
		{
			"buffer":0,
			"byteLength":1200,
			"byteOffset":122628
		}
	],
	"buffers":[
		{
			"byteLength":123828,
			"uri":"asset.bin"
		}
	]
}
