{
	"asset":{
		"generator":"Khronos glTF Blender I/O v3.6.27",
		"version":"2.0"
	},
	"scene":0,
	"scenes":[
		{
			"name":"Scene",
			"nodes":[
				0,
				1
			]
		}
	],
	"nodes":[
		{
			"mesh":0,
			"name":"Object",
			"rotation":[
				0.7071068286895752,
				0,
				0,
				0.7071068286895752
			],
			"scale":[
				9.672115325927734,
				4.863758087158203,
				4.863758087158203
			],
			"translation":[
				0,
				0,
				-9.347317695617676
			]
		},
		{
			"mesh":1,
			"name":"Plane",
			"rotation":[
				0.7071068286895752,
				0,
				0,
				0.7071068286895752
			],
			"scale":[
				9.783528327941895,
				4.672008991241455,
				4.953930377960205
			],
			"translation":[
				-24.091550827026367,
				0.05904906243085861,
				-1.4601969718933105
			]
		}
	],
	"animations":[
		{
			"channels":[
				{
					"sampler":0,
					"target":{
						"node":0,
						"path":"translation"
					}
				},
				{
					"sampler":1,
					"target":{
						"node":0,
						"path":"rotation"
					}
				},
				{
					"sampler":2,
					"target":{
						"node":0,
						"path":"scale"
					}
				}
			],
			"name":"panel",
			"samplers":[
				{
					"input":8,
					"interpolation":"STEP",
					"output":9
				},
				{
					"input":8,
					"interpolation":"STEP",
					"output":10
				},
				{
					"input":8,
					"interpolation":"STEP",
					"output":11
				}
			]
		},
		{
			"channels":[
				{
					"sampler":0,
					"target":{
						"node":0,
						"path":"translation"
					}
				},
				{
					"sampler":1,
					"target":{
						"node":0,
						"path":"rotation"
					}
				},
				{
					"sampler":2,
					"target":{
						"node":0,
						"path":"scale"
					}
				}
			],
			"name":"papan",
			"samplers":[
				{
					"input":12,
					"interpolation":"LINEAR",
					"output":13
				},
				{
					"input":12,
					"interpolation":"LINEAR",
					"output":14
				},
				{
					"input":12,
					"interpolation":"LINEAR",
					"output":15
				}
			]
		},
		{
			"channels":[
				{
					"sampler":0,
					"target":{
						"node":1,
						"path":"translation"
					}
				},
				{
					"sampler":1,
					"target":{
						"node":1,
						"path":"rotation"
					}
				},
				{
					"sampler":2,
					"target":{
						"node":1,
						"path":"scale"
					}
				}
			],
			"name":"Action",
			"samplers":[
				{
					"input":12,
					"interpolation":"LINEAR",
					"output":16
				},
				{
					"input":12,
					"interpolation":"LINEAR",
					"output":17
				},
				{
					"input":12,
					"interpolation":"LINEAR",
					"output":18
				}
			]
		}
	],
	"materials":[
		{
			"doubleSided":true,
			"name":"Material.020",
			"pbrMetallicRoughness":{
				"baseColorTexture":{
					"index":0
				},
				"metallicFactor":0,
				"roughnessFactor":0.5
			}
		}
	],
	"meshes":[
		{
			"name":"Plane.001",
			"primitives":[
				{
					"attributes":{
						"POSITION":0,
						"NORMAL":1,
						"TEXCOORD_0":2
					},
					"indices":3,
					"material":0
				}
			]
		},
		{
			"name":"Plane",
			"primitives":[
				{
					"attributes":{
						"POSITION":4,
						"NORMAL":5,
						"TEXCOORD_0":6
					},
					"indices":7
				}
			]
		}
	],
	"textures":[
		{
			"sampler":0,
			"source":0
		}
	],
	"images":[
		{
			"mimeType":"image/jpeg",
			"name":"texture",
			"uri":"texture.jpg"
		}
	],
	"accessors":[
		{
			"bufferView":0,
			"componentType":5126,
			"count":71233,
			"max":[
				1,
				0.8028762340545654,
				1
			],
			"min":[
				-1,
				-0.6897506713867188,
				-1
			],
			"type":"VEC3"
		},
		{
			"bufferView":1,
			"componentType":5126,
			"count":71233,
			"type":"VEC3"
		},
		{
			"bufferView":2,
			"componentType":5126,
			"count":71233,
			"type":"VEC2"
		},
		{
			"bufferView":3,
			"componentType":5125,
			"count":417369,
			"type":"SCALAR"
		},
		{
			"bufferView":4,
			"componentType":5126,
			"count":156,
			"max":[
				1,
				0,
				1
			],
			"min":[
				-1,
				-1.1342984437942505,
				-1
			],
			"type":"VEC3"
		},
		{
			"bufferView":5,
			"componentType":5126,
			"count":156,
			"type":"VEC3"
		},
		{
			"bufferView":6,
			"componentType":5126,
			"count":156,
			"type":"VEC2"
		},
		{
			"bufferView":7,
			"componentType":5123,
			"count":324,
			"type":"SCALAR"
		},
		{
			"bufferView":8,
			"componentType":5126,
			"count":2,
			"max":[
				2.875
			],
			"min":[
				2.7916666666666665
			],
			"type":"SCALAR"
		},
		{
			"bufferView":9,
			"componentType":5126,
			"count":2,
			"type":"VEC3"
		},
		{
			"bufferView":10,
			"componentType":5126,
			"count":2,
			"type":"VEC4"
		},
		{
			"bufferView":11,
			"componentType":5126,
			"count":2,
			"type":"VEC3"
		},
		{
			"bufferView":12,
			"componentType":5126,
			"count":1,
			"max":[
				2.7916666666666665
			],
			"min":[
				2.7916666666666665
			],
			"type":"SCALAR"
		},
		{
			"bufferView":13,
			"componentType":5126,
			"count":1,
			"type":"VEC3"
		},
		{
			"bufferView":14,
			"componentType":5126,
			"count":1,
			"type":"VEC4"
		},
		{
			"bufferView":15,
			"componentType":5126,
			"count":1,
			"type":"VEC3"
		},
		{
			"bufferView":16,
			"componentType":5126,
			"count":1,
			"type":"VEC3"
		},
		{
			"bufferView":17,
			"componentType":5126,
			"count":1,
			"type":"VEC4"
		},
		{
			"bufferView":18,
			"componentType":5126,
			"count":1,
			"type":"VEC3"
		}
	],
	"bufferViews":[
		{
			"buffer":0,
			"byteLength":854796,
			"byteOffset":0,
			"target":34962
		},
		{
			"buffer":0,
			"byteLength":854796,
			"byteOffset":854796,
			"target":34962
		},
		{
			"buffer":0,
			"byteLength":569864,
			"byteOffset":1709592,
			"target":34962
		},
		{
			"buffer":0,
			"byteLength":1669476,
			"byteOffset":2279456,
			"target":34963
		},
		{
			"buffer":0,
			"byteLength":1872,
			"byteOffset":3948932,
			"target":34962
		},
		{
			"buffer":0,
			"byteLength":1872,
			"byteOffset":3950804,
			"target":34962
		},
		{
			"buffer":0,
			"byteLength":1248,
			"byteOffset":3952676,
			"target":34962
		},
		{
			"buffer":0,
			"byteLength":648,
			"byteOffset":3953924,
			"target":34963
		},
		{
			"buffer":0,
			"byteLength":8,
			"byteOffset":3954572
		},
		{
			"buffer":0,
			"byteLength":24,
			"byteOffset":3954580
		},
		{
			"buffer":0,
			"byteLength":32,
			"byteOffset":3954604
		},
		{
			"buffer":0,
			"byteLength":24,
			"byteOffset":3954636
		},
		{
			"buffer":0,
			"byteLength":4,
			"byteOffset":3954660
		},
		{
			"buffer":0,
			"byteLength":12,
			"byteOffset":3954664
		},
		{
			"buffer":0,
			"byteLength":16,
			"byteOffset":3954676
		},
		{
			"buffer":0,
			"byteLength":12,
			"byteOffset":3954692
		},
		{
			"buffer":0,
			"byteLength":12,
			"byteOffset":3954704
		},
		{
			"buffer":0,
			"byteLength":16,
			"byteOffset":3954716
		},
		{
			"buffer":0,
			"byteLength":12,
			"byteOffset":3954732
		}
	],
	"samplers":[
		{
			"magFilter":9729,
			"minFilter":9987
		}
	],
	"buffers":[
		{
			"byteLength":3954744,
			"uri":"coba.bin"
		}
	]
}
