{
	"asset":{
		"generator":"Khronos glTF Blender I/O v3.6.27",
		"version":"2.0"
	},
	"scene":0,
	"scenes":[
		{
			"name":"Scene",
			"nodes":[
				0,
				1,
				2,
				3,
				4,
				5
			]
		}
	],
	"nodes":[
		{
			"mesh":0,
			"name":"Plane",
			"scale":[
				2.799999952316284,
				1,
				1
			],
			"translation":[
				0.0023689568042755127,
				-1.9764363765716553,
				-2.631788969039917
			]
		},
		{
			"mesh":1,
			"name":"gedung1",
			"rotation":[
				0.7071068286895752,
				0,
				0,
				0.7071068286895752
			],
			"scale":[
				0.2078334242105484,
				0.16137731075286865,
				0.4846491515636444
			],
			"translation":[
				0.5292302370071411,
				-1.2273902893066406,
				1.2577461004257202
			]
		},
		{
			"mesh":2,
			"name":"gedung2",
			"rotation":[
				0.7071068286895752,
				0,
				0,
				0.7071068286895752
			],
			"scale":[
				0.16137731075286865,
				0.16137731075286865,
				0.5264602303504944
			],
			"translation":[
				1.9422996044158936,
				-1.1859806776046753,
				1.6883631944656372
			]
		},
		{
			"mesh":3,
			"name":"gedung3",
			"rotation":[
				0.7071068286895752,
				0,
				0,
				0.7071068286895752
			],
			"scale":[
				0.16137731075286865,
				0.16137731075286865,
				0.5264602303504944
			],
			"translation":[
				0.46121230721473694,
				-1.1859806776046753,
				2.124110221862793
			]
		},
		{
			"mesh":4,
			"name":"gedung4",
			"rotation":[
				0.7071068286895752,
				0,
				0,
				0.7071068286895752
			],
			"scale":[
				0.16137731075286865,
				0.16137731075286865,
				0.4846491813659668
			],
			"translation":[
				0.5292302370071411,
				-1.2273902893066406,
				2.6161463260650635
			]
		},
		{
			"mesh":5,
			"name":"cloude",
			"rotation":[
				0.7071068286895752,
				0,
				0,
				0.7071068286895752
			],
			"scale":[
				0.13930220901966095,
				0.13930220901966095,
				0.13930220901966095
			],
			"translation":[
				-4.144474983215332,
				1.312023401260376,
				0.32253360748291016
			]
		}
	],
	"animations":[
		{
			"channels":[
				{
					"sampler":0,
					"target":{
						"node":0,
						"path":"translation"
					}
				},
				{
					"sampler":1,
					"target":{
						"node":0,
						"path":"rotation"
					}
				},
				{
					"sampler":2,
					"target":{
						"node":0,
						"path":"scale"
					}
				}
			],
			"name":"idle",
			"samplers":[
				{
					"input":24,
					"interpolation":"LINEAR",
					"output":25
				},
				{
					"input":24,
					"interpolation":"LINEAR",
					"output":26
				},
				{
					"input":24,
					"interpolation":"LINEAR",
					"output":27
				}
			]
		},
		{
			"channels":[
				{
					"sampler":0,
					"target":{
						"node":1,
						"path":"translation"
					}
				},
				{
					"sampler":1,
					"target":{
						"node":1,
						"path":"rotation"
					}
				},
				{
					"sampler":2,
					"target":{
						"node":1,
						"path":"scale"
					}
				}
			],
			"name":"black",
			"samplers":[
				{
					"input":28,
					"interpolation":"LINEAR",
					"output":29
				},
				{
					"input":30,
					"interpolation":"STEP",
					"output":31
				},
				{
					"input":30,
					"interpolation":"STEP",
					"output":32
				}
			]
		},
		{
			"channels":[
				{
					"sampler":0,
					"target":{
						"node":2,
						"path":"translation"
					}
				},
				{
					"sampler":1,
					"target":{
						"node":2,
						"path":"rotation"
					}
				},
				{
					"sampler":2,
					"target":{
						"node":2,
						"path":"scale"
					}
				}
			],
			"name":"abu",
			"samplers":[
				{
					"input":28,
					"interpolation":"LINEAR",
					"output":33
				},
				{
					"input":30,
					"interpolation":"STEP",
					"output":34
				},
				{
					"input":30,
					"interpolation":"STEP",
					"output":35
				}
			]
		},
		{
			"channels":[
				{
					"sampler":0,
					"target":{
						"node":3,
						"path":"translation"
					}
				},
				{
					"sampler":1,
					"target":{
						"node":3,
						"path":"rotation"
					}
				},
				{
					"sampler":2,
					"target":{
						"node":3,
						"path":"scale"
					}
				}
			],
			"name":"grey",
			"samplers":[
				{
					"input":36,
					"interpolation":"LINEAR",
					"output":37
				},
				{
					"input":38,
					"interpolation":"STEP",
					"output":39
				},
				{
					"input":38,
					"interpolation":"STEP",
					"output":40
				}
			]
		},
		{
			"channels":[
				{
					"sampler":0,
					"target":{
						"node":4,
						"path":"translation"
					}
				},
				{
					"sampler":1,
					"target":{
						"node":4,
						"path":"rotation"
					}
				},
				{
					"sampler":2,
					"target":{
						"node":4,
						"path":"scale"
					}
				}
			],
			"name":"putih",
			"samplers":[
				{
					"input":28,
					"interpolation":"LINEAR",
					"output":41
				},
				{
					"input":30,
					"interpolation":"STEP",
					"output":42
				},
				{
					"input":30,
					"interpolation":"STEP",
					"output":43
				}
			]
		},
		{
			"channels":[
				{
					"sampler":0,
					"target":{
						"node":5,
						"path":"translation"
					}
				},
				{
					"sampler":1,
					"target":{
						"node":5,
						"path":"rotation"
					}
				},
				{
					"sampler":2,
					"target":{
						"node":5,
						"path":"scale"
					}
				}
			],
			"name":"awan",
			"samplers":[
				{
					"input":44,
					"interpolation":"LINEAR",
					"output":45
				},
				{
					"input":46,
					"interpolation":"STEP",
					"output":47
				},
				{
					"input":46,
					"interpolation":"STEP",
					"output":48
				}
			]
		}
	],
	"materials":[
		{
			"doubleSided":true,
			"name":"Material.001",
			"pbrMetallicRoughness":{
				"baseColorFactor":[
					0.06352794915437698,
					0.45724520087242126,
					0.8000000715255737,
					1
				],
				"metallicFactor":0,
				"roughnessFactor":0.5
			}
		},
		{
			"doubleSided":true,
			"name":"Material.002",
			"pbrMetallicRoughness":{
				"baseColorFactor":[
					0.005604545120149851,
					0.005604545120149851,
					0.005604545120149851,
					1
				],
				"metallicFactor":0,
				"roughnessFactor":0.5
			}
		},
		{
			"doubleSided":true,
			"name":"Material.003",
			"pbrMetallicRoughness":{
				"baseColorFactor":[
					0.11927539110183716,
					0.11927539110183716,
					0.11927539110183716,
					1
				],
				"metallicFactor":0,
				"roughnessFactor":0.5
			}
		},
		{
			"doubleSided":true,
			"name":"Material.004",
			"pbrMetallicRoughness":{
				"baseColorFactor":[
					0.2667607069015503,
					0.2667607069015503,
					0.2667607069015503,
					1
				],
				"metallicFactor":0,
				"roughnessFactor":0.5
			}
		},
		{
			"doubleSided":true,
			"name":"Material.005",
			"pbrMetallicRoughness":{
				"metallicFactor":0,
				"roughnessFactor":0.5
			}
		},
		{
			"doubleSided":true,
			"name":"Material.006",
			"pbrMetallicRoughness":{
				"baseColorFactor":[
					0.800000011920929,
					0.800000011920929,
					0.800000011920929,
					1
				],
				"metallicFactor":0,
				"roughnessFactor":0.5
			}
		}
	],
	"meshes":[
		{
			"name":"Plane",
			"primitives":[
				{
					"attributes":{
						"POSITION":0,
						"NORMAL":1,
						"TEXCOORD_0":2
					},
					"indices":3,
					"material":0
				}
			]
		},
		{
			"name":"Plane.002",
			"primitives":[
				{
					"attributes":{
						"POSITION":4,
						"NORMAL":5,
						"TEXCOORD_0":6
					},
					"indices":7,
					"material":1
				}
			]
		},
		{
			"name":"Plane.003",
			"primitives":[
				{
					"attributes":{
						"POSITION":8,
						"NORMAL":9,
						"TEXCOORD_0":10
					},
					"indices":11,
					"material":2
				}
			]
		},
		{
			"name":"Plane.004",
			"primitives":[
				{
					"attributes":{
						"POSITION":12,
						"NORMAL":13,
						"TEXCOORD_0":14
					},
					"indices":15,
					"material":3
				}
			]
		},
		{
			"name":"Plane.005",
			"primitives":[
				{
					"attributes":{
						"POSITION":16,
						"NORMAL":17,
						"TEXCOORD_0":18
					},
					"indices":19,
					"material":4
				}
			]
		},
		{
			"name":"Plane.006",
			"primitives":[
				{
					"attributes":{
						"POSITION":20,
						"NORMAL":21,
						"TEXCOORD_0":22
					},
					"indices":23,
					"material":5
				}
			]
		}
	],
	"accessors":[
		{
			"bufferView":0,
			"componentType":5126,
			"count":44,
			"max":[
				3.455268383026123,
				7.261419296264648,
				47.245872497558594
			],
			"min":[
				-10.598957061767578,
				-2.8768415451049805,
				0
			],
			"type":"VEC3"
		},
		{
			"bufferView":1,
			"componentType":5126,
			"count":44,
			"type":"VEC3"
		},
		{
			"bufferView":2,
			"componentType":5126,
			"count":44,
			"type":"VEC2"
		},
		{
			"bufferView":3,
			"componentType":5123,
			"count":120,
			"type":"SCALAR"
		},
		{
			"bufferView":4,
			"componentType":5126,
			"count":600,
			"max":[
				12.367424964904785,
				-6.554266747116344e-07,
				0.043992042541503906
			],
			"min":[
				-23.511035919189453,
				-1.144966721534729,
				-3.026716947555542
			],
			"type":"VEC3"
		},
		{
			"bufferView":5,
			"componentType":5126,
			"count":600,
			"type":"VEC3"
		},
		{
			"bufferView":6,
			"componentType":5126,
			"count":600,
			"type":"VEC2"
		},
		{
			"bufferView":7,
			"componentType":5123,
			"count":1008,
			"type":"SCALAR"
		},
		{
			"bufferView":8,
			"componentType":5126,
			"count":1132,
			"max":[
				12.367424011230469,
				-1.7858948808679997e-07,
				0.1203073263168335
			],
			"min":[
				-61.373775482177734,
				-1.1449662446975708,
				-2.9504013061523438
			],
			"type":"VEC3"
		},
		{
			"bufferView":9,
			"componentType":5126,
			"count":1132,
			"type":"VEC3"
		},
		{
			"bufferView":10,
			"componentType":5126,
			"count":1132,
			"type":"VEC2"
		},
		{
			"bufferView":11,
			"componentType":5123,
			"count":1896,
			"type":"SCALAR"
		},
		{
			"bufferView":12,
			"componentType":5126,
			"count":1560,
			"max":[
				20.4395694732666,
				2.2444623937190045e-10,
				0.1203073263168335
			],
			"min":[
				-95.83446502685547,
				-1.1449662446975708,
				-2.7640700340270996
			],
			"type":"VEC3"
		},
		{
			"bufferView":13,
			"componentType":5126,
			"count":1560,
			"type":"VEC3"
		},
		{
			"bufferView":14,
			"componentType":5126,
			"count":1560,
			"type":"VEC2"
		},
		{
			"bufferView":15,
			"componentType":5123,
			"count":3024,
			"type":"SCALAR"
		},
		{
			"bufferView":16,
			"componentType":5126,
			"count":2100,
			"max":[
				28.643524169921875,
				-1.7858948808679997e-07,
				0.04399228096008301
			],
			"min":[
				-122.27363586425781,
				-1.1449662446975708,
				-3.026716709136963
			],
			"type":"VEC3"
		},
		{
			"bufferView":17,
			"componentType":5126,
			"count":2100,
			"type":"VEC3"
		},
		{
			"bufferView":18,
			"componentType":5126,
			"count":2100,
			"type":"VEC2"
		},
		{
			"bufferView":19,
			"componentType":5123,
			"count":3528,
			"type":"SCALAR"
		},
		{
			"bufferView":20,
			"componentType":5126,
			"count":8580,
			"max":[
				56.31781005859375,
				0.023030996322631836,
				9.50223159790039
			],
			"min":[
				-55.10089874267578,
				-0.6209427118301392,
				-4.755704879760742
			],
			"type":"VEC3"
		},
		{
			"bufferView":21,
			"componentType":5126,
			"count":8580,
			"type":"VEC3"
		},
		{
			"bufferView":22,
			"componentType":5126,
			"count":8580,
			"type":"VEC2"
		},
		{
			"bufferView":23,
			"componentType":5123,
			"count":21960,
			"type":"SCALAR"
		},
		{
			"bufferView":24,
			"componentType":5126,
			"count":1,
			"max":[
				4.291666666666667
			],
			"min":[
				4.291666666666667
			],
			"type":"SCALAR"
		},
		{
			"bufferView":25,
			"componentType":5126,
			"count":1,
			"type":"VEC3"
		},
		{
			"bufferView":26,
			"componentType":5126,
			"count":1,
			"type":"VEC4"
		},
		{
			"bufferView":27,
			"componentType":5126,
			"count":1,
			"type":"VEC3"
		},
		{
			"bufferView":28,
			"componentType":5126,
			"count":300,
			"max":[
				12.5
			],
			"min":[
				0.041666666666666664
			],
			"type":"SCALAR"
		},
		{
			"bufferView":29,
			"componentType":5126,
			"count":300,
			"type":"VEC3"
		},
		{
			"bufferView":30,
			"componentType":5126,
			"count":2,
			"max":[
				12.5
			],
			"min":[
				0.041666666666666664
			],
			"type":"SCALAR"
		},
		{
			"bufferView":31,
			"componentType":5126,
			"count":2,
			"type":"VEC4"
		},
		{
			"bufferView":32,
			"componentType":5126,
			"count":2,
			"type":"VEC3"
		},
		{
			"bufferView":33,
			"componentType":5126,
			"count":300,
			"type":"VEC3"
		},
		{
			"bufferView":34,
			"componentType":5126,
			"count":2,
			"type":"VEC4"
		},
		{
			"bufferView":35,
			"componentType":5126,
			"count":2,
			"type":"VEC3"
		},
		{
			"bufferView":36,
			"componentType":5126,
			"count":302,
			"max":[
				12.541666666666666
			],
			"min":[
				0
			],
			"type":"SCALAR"
		},
		{
			"bufferView":37,
			"componentType":5126,
			"count":302,
			"type":"VEC3"
		},
		{
			"bufferView":38,
			"componentType":5126,
			"count":2,
			"max":[
				12.541666666666666
			],
			"min":[
				0
			],
			"type":"SCALAR"
		},
		{
			"bufferView":39,
			"componentType":5126,
			"count":2,
			"type":"VEC4"
		},
		{
			"bufferView":40,
			"componentType":5126,
			"count":2,
			"type":"VEC3"
		},
		{
			"bufferView":41,
			"componentType":5126,
			"count":300,
			"type":"VEC3"
		},
		{
			"bufferView":42,
			"componentType":5126,
			"count":2,
			"type":"VEC4"
		},
		{
			"bufferView":43,
			"componentType":5126,
			"count":2,
			"type":"VEC3"
		},
		{
			"bufferView":44,
			"componentType":5126,
			"count":299,
			"max":[
				12.5
			],
			"min":[
				0.08333333333333333
			],
			"type":"SCALAR"
		},
		{
			"bufferView":45,
			"componentType":5126,
			"count":299,
			"type":"VEC3"
		},
		{
			"bufferView":46,
			"componentType":5126,
			"count":2,
			"max":[
				12.5
			],
			"min":[
				0.08333333333333333
			],
			"type":"SCALAR"
		},
		{
			"bufferView":47,
			"componentType":5126,
			"count":2,
			"type":"VEC4"
		},
		{
			"bufferView":48,
			"componentType":5126,
			"count":2,
			"type":"VEC3"
		}
	],
	"bufferViews":[
		{
			"buffer":0,
			"byteLength":528,
			"byteOffset":0,
			"target":34962
		},
		{
			"buffer":0,
			"byteLength":528,
			"byteOffset":528,
			"target":34962
		},
		{
			"buffer":0,
			"byteLength":352,
			"byteOffset":1056,
			"target":34962
		},
		{
			"buffer":0,
			"byteLength":240,
			"byteOffset":1408,
			"target":34963
		},
		{
			"buffer":0,
			"byteLength":7200,
			"byteOffset":1648,
			"target":34962
		},
		{
			"buffer":0,
			"byteLength":7200,
			"byteOffset":8848,
			"target":34962
		},
		{
			"buffer":0,
			"byteLength":4800,
			"byteOffset":16048,
			"target":34962
		},
		{
			"buffer":0,
			"byteLength":2016,
			"byteOffset":20848,
			"target":34963
		},
		{
			"buffer":0,
			"byteLength":13584,
			"byteOffset":22864,
			"target":34962
		},
		{
			"buffer":0,
			"byteLength":13584,
			"byteOffset":36448,
			"target":34962
		},
		{
			"buffer":0,
			"byteLength":9056,
			"byteOffset":50032,
			"target":34962
		},
		{
			"buffer":0,
			"byteLength":3792,
			"byteOffset":59088,
			"target":34963
		},
		{
			"buffer":0,
			"byteLength":18720,
			"byteOffset":62880,
			"target":34962
		},
		{
			"buffer":0,
			"byteLength":18720,
			"byteOffset":81600,
			"target":34962
		},
		{
			"buffer":0,
			"byteLength":12480,
			"byteOffset":100320,
			"target":34962
		},
		{
			"buffer":0,
			"byteLength":6048,
			"byteOffset":112800,
			"target":34963
		},
		{
			"buffer":0,
			"byteLength":25200,
			"byteOffset":118848,
			"target":34962
		},
		{
			"buffer":0,
			"byteLength":25200,
			"byteOffset":144048,
			"target":34962
		},
		{
			"buffer":0,
			"byteLength":16800,
			"byteOffset":169248,
			"target":34962
		},
		{
			"buffer":0,
			"byteLength":7056,
			"byteOffset":186048,
			"target":34963
		},
		{
			"buffer":0,
			"byteLength":102960,
			"byteOffset":193104,
			"target":34962
		},
		{
			"buffer":0,
			"byteLength":102960,
			"byteOffset":296064,
			"target":34962
		},
		{
			"buffer":0,
			"byteLength":68640,
			"byteOffset":399024,
			"target":34962
		},
		{
			"buffer":0,
			"byteLength":43920,
			"byteOffset":467664,
			"target":34963
		},
		{
			"buffer":0,
			"byteLength":4,
			"byteOffset":511584
		},
		{
			"buffer":0,
			"byteLength":12,
			"byteOffset":511588
		},
		{
			"buffer":0,
			"byteLength":16,
			"byteOffset":511600
		},
		{
			"buffer":0,
			"byteLength":12,
			"byteOffset":511616
		},
		{
			"buffer":0,
			"byteLength":1200,
			"byteOffset":511628
		},
		{
			"buffer":0,
			"byteLength":3600,
			"byteOffset":512828
		},
		{
			"buffer":0,
			"byteLength":8,
			"byteOffset":516428
		},
		{
			"buffer":0,
			"byteLength":32,
			"byteOffset":516436
		},
		{
			"buffer":0,
			"byteLength":24,
			"byteOffset":516468
		},
		{
			"buffer":0,
			"byteLength":3600,
			"byteOffset":516492
		},
		{
			"buffer":0,
			"byteLength":32,
			"byteOffset":520092
		},
		{
			"buffer":0,
			"byteLength":24,
			"byteOffset":520124
		},
		{
			"buffer":0,
			"byteLength":1208,
			"byteOffset":520148
		},
		{
			"buffer":0,
			"byteLength":3624,
			"byteOffset":521356
		},
		{
			"buffer":0,
			"byteLength":8,
			"byteOffset":524980
		},
		{
			"buffer":0,
			"byteLength":32,
			"byteOffset":524988
		},
		{
			"buffer":0,
			"byteLength":24,
			"byteOffset":525020
		},
		{
			"buffer":0,
			"byteLength":3600,
			"byteOffset":525044
		},
		{
			"buffer":0,
			"byteLength":32,
			"byteOffset":528644
		},
		{
			"buffer":0,
			"byteLength":24,
			"byteOffset":528676
		},
		{
			"buffer":0,
			"byteLength":1196,
			"byteOffset":528700
		},
		{
			"buffer":0,
			"byteLength":3588,
			"byteOffset":529896
		},
		{
			"buffer":0,
			"byteLength":8,
			"byteOffset":533484
		},
		{
			"buffer":0,
			"byteLength":32,
			"byteOffset":533492
		},
		{
			"buffer":0,
			"byteLength":24,
			"byteOffset":533524
		}
	],
	"buffers":[
		{
			"byteLength":533548,
			"uri":"tampilan.bin"
		}
	]
}
