{
	"asset":{
		"generator":"Khronos glTF Blender I/O v3.5.30",
		"version":"2.0"
	},
	"scene":0,
	"scenes":[
		{
			"name":"Scene",
			"nodes":[
				0,
				1
			]
		}
	],
	"nodes":[
		{
			"mesh":0,
			"name":"hitam",
			"scale":[
				0.2359883189201355,
				0.5400521755218506,
				0.2359883189201355
			],
			"translation":[
				0,
				0.0011303231585770845,
				0
			]
		},
		{
			"mesh":1,
			"name":"brok",
			"rotation":[
				0,
				0,
				-1,
				4.5964805312631585e-14
			],
			"scale":[
				0.1802651286125183,
				0.1802651286125183,
				0.1802651286125183
			],
			"translation":[
				0.6890473961830139,
				-0.004682675004005432,
				0.10002262890338898
			]
		}
	],
	"animations":[
		{
			"channels":[
				{
					"sampler":0,
					"target":{
						"node":0,
						"path":"translation"
					}
				},
				{
					"sampler":1,
					"target":{
						"node":0,
						"path":"rotation"
					}
				},
				{
					"sampler":2,
					"target":{
						"node":0,
						"path":"scale"
					}
				}
			],
			"name":"Action",
			"samplers":[
				{
					"input":8,
					"interpolation":"LINEAR",
					"output":9
				},
				{
					"input":8,
					"interpolation":"LINEAR",
					"output":10
				},
				{
					"input":8,
					"interpolation":"LINEAR",
					"output":11
				}
			]
		},
		{
			"channels":[
				{
					"sampler":0,
					"target":{
						"node":0,
						"path":"translation"
					}
				},
				{
					"sampler":1,
					"target":{
						"node":0,
						"path":"rotation"
					}
				},
				{
					"sampler":2,
					"target":{
						"node":0,
						"path":"scale"
					}
				}
			],
			"name":"naik",
			"samplers":[
				{
					"input":12,
					"interpolation":"LINEAR",
					"output":13
				},
				{
					"input":12,
					"interpolation":"LINEAR",
					"output":14
				},
				{
					"input":12,
					"interpolation":"LINEAR",
					"output":15
				}
			]
		},
		{
			"channels":[
				{
					"sampler":0,
					"target":{
						"node":1,
						"path":"translation"
					}
				},
				{
					"sampler":1,
					"target":{
						"node":1,
						"path":"rotation"
					}
				},
				{
					"sampler":2,
					"target":{
						"node":1,
						"path":"scale"
					}
				}
			],
			"name":"idle",
			"samplers":[
				{
					"input":16,
					"interpolation":"LINEAR",
					"output":17
				},
				{
					"input":16,
					"interpolation":"LINEAR",
					"output":18
				},
				{
					"input":16,
					"interpolation":"LINEAR",
					"output":19
				}
			]
		},
		{
			"channels":[
				{
					"sampler":0,
					"target":{
						"node":1,
						"path":"translation"
					}
				},
				{
					"sampler":1,
					"target":{
						"node":1,
						"path":"rotation"
					}
				},
				{
					"sampler":2,
					"target":{
						"node":1,
						"path":"scale"
					}
				}
			],
			"name":"kotak",
			"samplers":[
				{
					"input":20,
					"interpolation":"LINEAR",
					"output":21
				},
				{
					"input":20,
					"interpolation":"LINEAR",
					"output":22
				},
				{
					"input":20,
					"interpolation":"LINEAR",
					"output":23
				}
			]
		}
	],
	"materials":[
		{
			"doubleSided":true,
			"name":"Material.005",
			"pbrMetallicRoughness":{
				"baseColorFactor":[
					0.027209972962737083,
					0.027209972962737083,
					0.027209972962737083,
					1
				],
				"metallicFactor":0,
				"roughnessFactor":0.5
			}
		},
		{
			"doubleSided":true,
			"name":"Material.008",
			"pbrMetallicRoughness":{
				"baseColorFactor":[
					0.800000011920929,
					0.800000011920929,
					0.800000011920929,
					1
				],
				"metallicFactor":0,
				"roughnessFactor":0.5
			}
		}
	],
	"meshes":[
		{
			"name":"Cylinder",
			"primitives":[
				{
					"attributes":{
						"POSITION":0,
						"TEXCOORD_0":1,
						"NORMAL":2
					},
					"indices":3,
					"material":0
				}
			]
		},
		{
			"name":"Cube.002",
			"primitives":[
				{
					"attributes":{
						"POSITION":4,
						"TEXCOORD_0":5,
						"NORMAL":6
					},
					"indices":7,
					"material":1
				}
			]
		}
	],
	"accessors":[
		{
			"bufferView":0,
			"componentType":5126,
			"count":2400,
			"max":[
				1.2217320203781128,
				1.674186110496521,
				1.2217320203781128
			],
			"min":[
				-1.2217320203781128,
				-1,
				-1.2217320203781128
			],
			"type":"VEC3"
		},
		{
			"bufferView":1,
			"componentType":5126,
			"count":2400,
			"type":"VEC2"
		},
		{
			"bufferView":2,
			"componentType":5126,
			"count":2400,
			"type":"VEC3"
		},
		{
			"bufferView":3,
			"componentType":5123,
			"count":9600,
			"type":"SCALAR"
		},
		{
			"bufferView":4,
			"componentType":5126,
			"count":86,
			"max":[
				1,
				1.3424632549285889,
				1
			],
			"min":[
				-1,
				-1,
				-1
			],
			"type":"VEC3"
		},
		{
			"bufferView":5,
			"componentType":5126,
			"count":86,
			"type":"VEC2"
		},
		{
			"bufferView":6,
			"componentType":5126,
			"count":86,
			"type":"VEC3"
		},
		{
			"bufferView":7,
			"componentType":5123,
			"count":216,
			"type":"SCALAR"
		},
		{
			"bufferView":8,
			"componentType":5126,
			"count":99,
			"max":[
				4.166666666666667
			],
			"min":[
				0.08333333333333333
			],
			"type":"SCALAR"
		},
		{
			"bufferView":9,
			"componentType":5126,
			"count":99,
			"type":"VEC3"
		},
		{
			"bufferView":10,
			"componentType":5126,
			"count":99,
			"type":"VEC4"
		},
		{
			"bufferView":11,
			"componentType":5126,
			"count":99,
			"type":"VEC3"
		},
		{
			"bufferView":12,
			"componentType":5126,
			"count":101,
			"max":[
				4.166666666666667
			],
			"min":[
				0
			],
			"type":"SCALAR"
		},
		{
			"bufferView":13,
			"componentType":5126,
			"count":101,
			"type":"VEC3"
		},
		{
			"bufferView":14,
			"componentType":5126,
			"count":101,
			"type":"VEC4"
		},
		{
			"bufferView":15,
			"componentType":5126,
			"count":101,
			"type":"VEC3"
		},
		{
			"bufferView":16,
			"componentType":5126,
			"count":98,
			"max":[
				4.125
			],
			"min":[
				0.08333333333333333
			],
			"type":"SCALAR"
		},
		{
			"bufferView":17,
			"componentType":5126,
			"count":98,
			"type":"VEC3"
		},
		{
			"bufferView":18,
			"componentType":5126,
			"count":98,
			"type":"VEC4"
		},
		{
			"bufferView":19,
			"componentType":5126,
			"count":98,
			"type":"VEC3"
		},
		{
			"bufferView":20,
			"componentType":5126,
			"count":100,
			"max":[
				4.125
			],
			"min":[
				0
			],
			"type":"SCALAR"
		},
		{
			"bufferView":21,
			"componentType":5126,
			"count":100,
			"type":"VEC3"
		},
		{
			"bufferView":22,
			"componentType":5126,
			"count":100,
			"type":"VEC4"
		},
		{
			"bufferView":23,
			"componentType":5126,
			"count":100,
			"type":"VEC3"
		}
	],
	"bufferViews":[
		{
			"buffer":0,
			"byteLength":28800,
			"byteOffset":0,
			"target":34962
		},
		{
			"buffer":0,
			"byteLength":19200,
			"byteOffset":28800,
			"target":34962
		},
		{
			"buffer":0,
			"byteLength":28800,
			"byteOffset":48000,
			"target":34962
		},
		{
			"buffer":0,
			"byteLength":19200,
			"byteOffset":76800,
			"target":34963
		},
		{
			"buffer":0,
			"byteLength":1032,
			"byteOffset":96000,
			"target":34962
		},
		{
			"buffer":0,
			"byteLength":688,
			"byteOffset":97032,
			"target":34962
		},
		{
			"buffer":0,
			"byteLength":1032,
			"byteOffset":97720,
			"target":34962
		},
		{
			"buffer":0,
			"byteLength":432,
			"byteOffset":98752,
			"target":34963
		},
		{
			"buffer":0,
			"byteLength":396,
			"byteOffset":99184
		},
		{
			"buffer":0,
			"byteLength":1188,
			"byteOffset":99580
		},
		{
			"buffer":0,
			"byteLength":1584,
			"byteOffset":100768
		},
		{
			"buffer":0,
			"byteLength":1188,
			"byteOffset":102352
		},
		{
			"buffer":0,
			"byteLength":404,
			"byteOffset":103540
		},
		{
			"buffer":0,
			"byteLength":1212,
			"byteOffset":103944
		},
		{
			"buffer":0,
			"byteLength":1616,
			"byteOffset":105156
		},
		{
			"buffer":0,
			"byteLength":1212,
			"byteOffset":106772
		},
		{
			"buffer":0,
			"byteLength":392,
			"byteOffset":107984
		},
		{
			"buffer":0,
			"byteLength":1176,
			"byteOffset":108376
		},
		{
			"buffer":0,
			"byteLength":1568,
			"byteOffset":109552
		},
		{
			"buffer":0,
			"byteLength":1176,
			"byteOffset":111120
		},
		{
			"buffer":0,
			"byteLength":400,
			"byteOffset":112296
		},
		{
			"buffer":0,
			"byteLength":1200,
			"byteOffset":112696
		},
		{
			"buffer":0,
			"byteLength":1600,
			"byteOffset":113896
		},
		{
			"buffer":0,
			"byteLength":1200,
			"byteOffset":115496
		}
	],
	"buffers":[
		{
			"byteLength":116696,
			"uri":"test3d.bin"
		}
	]
}
