{
	"asset":{
		"generator":"Khronos glTF Blender I/O v3.6.27",
		"version":"2.0"
	},
	"scene":0,
	"scenes":[
		{
			"name":"Scene",
			"nodes":[
				0,
				1,
				2,
				3,
				4,
				5,
				6,
				7
			]
		}
	],
	"nodes":[
		{
			"mesh":0,
			"name":"Plane",
			"rotation":[
				0.2164396345615387,
				0,
				0,
				0.9762960076332092
			],
			"scale":[
				0.86583411693573,
				0.792398989200592,
				0.00021298065257724375
			],
			"translation":[
				0.4201449155807495,
				1.9061317443847656,
				-4.300617218017578
			]
		},
		{
			"mesh":1,
			"name":"Plane.002",
			"rotation":[
				0.1326073408126831,
				0,
				0,
				0.991168737411499
			],
			"scale":[
				0.86583411693573,
				0.8658341765403748,
				0
			],
			"translation":[
				-0.3901721239089966,
				0.514579713344574,
				-1.104454517364502
			]
		},
		{
			"mesh":2,
			"name":"Plane.003",
			"rotation":[
				0.1326073408126831,
				0,
				0,
				0.991168737411499
			],
			"scale":[
				0.86583411693573,
				0.8658341765403748,
				0
			],
			"translation":[
				0.46925485134124756,
				-0.6957189440727234,
				1.7151342630386353
			]
		},
		{
			"mesh":3,
			"name":"Plane.004",
			"scale":[
				0,
				0,
				0
			],
			"translation":[
				-3.433140277862549,
				1.2508190870285034,
				1.2546700239181519
			]
		},
		{
			"mesh":4,
			"name":"Circle",
			"rotation":[
				0.20597869157791138,
				0,
				0,
				0.9785565137863159
			],
			"scale":[
				5.303650379180908,
				5.30364990234375,
				5.30364990234375
			],
			"translation":[
				0.46971482038497925,
				-0.44682520627975464,
				-0.5041192173957825
			]
		},
		{
			"mesh":5,
			"name":"air",
			"rotation":[
				0.20194827020168304,
				0,
				0,
				0.9793962240219116
			],
			"scale":[
				5.112948894500732,
				5.112948417663574,
				5.112948417663574
			],
			"translation":[
				0.5042964816093445,
				-0.25767266750335693,
				-0.33251506090164185
			]
		},
		{
			"mesh":6,
			"name":"Cube.002",
			"rotation":[
				0.06513916701078415,
				0.012869682163000107,
				0.1452092081308365,
				0.9871705770492554
			],
			"scale":[
				0.18083368241786957,
				1.0588186979293823,
				0.18083366751670837
			],
			"translation":[
				-2.278505325317383,
				-0.690673291683197,
				1.780503749847412
			]
		},
		{
			"mesh":7,
			"name":"Cylinder.004",
			"rotation":[
				0.13753759860992432,
				-0.011078824289143085,
				-0.0795232504606247,
				0.9872369170188904
			],
			"scale":[
				0.11503379791975021,
				0.45875537395477295,
				0.11503381282091141
			],
			"translation":[
				3.167119026184082,
				0.13007353246212006,
				0.036919005215168
			]
		}
	],
	"animations":[
		{
			"channels":[
				{
					"sampler":0,
					"target":{
						"node":0,
						"path":"translation"
					}
				},
				{
					"sampler":1,
					"target":{
						"node":0,
						"path":"rotation"
					}
				},
				{
					"sampler":2,
					"target":{
						"node":0,
						"path":"scale"
					}
				}
			],
			"name":"air1",
			"samplers":[
				{
					"input":30,
					"interpolation":"LINEAR",
					"output":31
				},
				{
					"input":30,
					"interpolation":"LINEAR",
					"output":32
				},
				{
					"input":30,
					"interpolation":"LINEAR",
					"output":33
				}
			]
		},
		{
			"channels":[
				{
					"sampler":0,
					"target":{
						"node":1,
						"path":"translation"
					}
				},
				{
					"sampler":1,
					"target":{
						"node":1,
						"path":"rotation"
					}
				},
				{
					"sampler":2,
					"target":{
						"node":1,
						"path":"scale"
					}
				}
			],
			"name":"air2",
			"samplers":[
				{
					"input":34,
					"interpolation":"LINEAR",
					"output":35
				},
				{
					"input":34,
					"interpolation":"LINEAR",
					"output":36
				},
				{
					"input":34,
					"interpolation":"LINEAR",
					"output":37
				}
			]
		},
		{
			"channels":[
				{
					"sampler":0,
					"target":{
						"node":2,
						"path":"translation"
					}
				},
				{
					"sampler":1,
					"target":{
						"node":2,
						"path":"rotation"
					}
				},
				{
					"sampler":2,
					"target":{
						"node":2,
						"path":"scale"
					}
				}
			],
			"name":"air3",
			"samplers":[
				{
					"input":38,
					"interpolation":"LINEAR",
					"output":39
				},
				{
					"input":38,
					"interpolation":"LINEAR",
					"output":40
				},
				{
					"input":38,
					"interpolation":"LINEAR",
					"output":41
				}
			]
		},
		{
			"channels":[
				{
					"sampler":0,
					"target":{
						"node":3,
						"path":"translation"
					}
				},
				{
					"sampler":1,
					"target":{
						"node":3,
						"path":"rotation"
					}
				},
				{
					"sampler":2,
					"target":{
						"node":3,
						"path":"scale"
					}
				}
			],
			"name":"idleKomen",
			"samplers":[
				{
					"input":42,
					"interpolation":"LINEAR",
					"output":43
				},
				{
					"input":42,
					"interpolation":"LINEAR",
					"output":44
				},
				{
					"input":42,
					"interpolation":"LINEAR",
					"output":45
				}
			]
		},
		{
			"channels":[
				{
					"sampler":0,
					"target":{
						"node":3,
						"path":"translation"
					}
				},
				{
					"sampler":1,
					"target":{
						"node":3,
						"path":"rotation"
					}
				},
				{
					"sampler":2,
					"target":{
						"node":3,
						"path":"scale"
					}
				}
			],
			"name":"komen",
			"samplers":[
				{
					"input":46,
					"interpolation":"STEP",
					"output":47
				},
				{
					"input":48,
					"interpolation":"LINEAR",
					"output":49
				},
				{
					"input":48,
					"interpolation":"LINEAR",
					"output":50
				}
			]
		},
		{
			"channels":[
				{
					"sampler":0,
					"target":{
						"node":4,
						"path":"translation"
					}
				},
				{
					"sampler":1,
					"target":{
						"node":4,
						"path":"rotation"
					}
				},
				{
					"sampler":2,
					"target":{
						"node":4,
						"path":"scale"
					}
				}
			],
			"name":"idle",
			"samplers":[
				{
					"input":51,
					"interpolation":"LINEAR",
					"output":52
				},
				{
					"input":51,
					"interpolation":"LINEAR",
					"output":53
				},
				{
					"input":51,
					"interpolation":"LINEAR",
					"output":54
				}
			]
		},
		{
			"channels":[
				{
					"sampler":0,
					"target":{
						"node":5,
						"path":"translation"
					}
				},
				{
					"sampler":1,
					"target":{
						"node":5,
						"path":"rotation"
					}
				},
				{
					"sampler":2,
					"target":{
						"node":5,
						"path":"scale"
					}
				}
			],
			"name":"idle2",
			"samplers":[
				{
					"input":55,
					"interpolation":"LINEAR",
					"output":56
				},
				{
					"input":55,
					"interpolation":"LINEAR",
					"output":57
				},
				{
					"input":55,
					"interpolation":"LINEAR",
					"output":58
				}
			]
		},
		{
			"channels":[
				{
					"sampler":0,
					"target":{
						"node":6,
						"path":"translation"
					}
				},
				{
					"sampler":1,
					"target":{
						"node":6,
						"path":"rotation"
					}
				},
				{
					"sampler":2,
					"target":{
						"node":6,
						"path":"scale"
					}
				}
			],
			"name":"pohon4",
			"samplers":[
				{
					"input":59,
					"interpolation":"STEP",
					"output":60
				},
				{
					"input":61,
					"interpolation":"LINEAR",
					"output":62
				},
				{
					"input":59,
					"interpolation":"STEP",
					"output":63
				}
			]
		},
		{
			"channels":[
				{
					"sampler":0,
					"target":{
						"node":7,
						"path":"translation"
					}
				},
				{
					"sampler":1,
					"target":{
						"node":7,
						"path":"rotation"
					}
				},
				{
					"sampler":2,
					"target":{
						"node":7,
						"path":"scale"
					}
				}
			],
			"name":"pohon2",
			"samplers":[
				{
					"input":59,
					"interpolation":"STEP",
					"output":64
				},
				{
					"input":61,
					"interpolation":"LINEAR",
					"output":65
				},
				{
					"input":59,
					"interpolation":"STEP",
					"output":66
				}
			]
		}
	],
	"materials":[
		{
			"alphaMode":"BLEND",
			"doubleSided":true,
			"name":"Material.003",
			"pbrMetallicRoughness":{
				"baseColorFactor":[
					1,
					1,
					1,
					0.14960628747940063
				],
				"baseColorTexture":{
					"index":0
				},
				"metallicFactor":0,
				"roughnessFactor":0.5
			}
		},
		{
			"doubleSided":true,
			"name":"Material.018",
			"pbrMetallicRoughness":{
				"baseColorTexture":{
					"index":1
				},
				"metallicFactor":0,
				"roughnessFactor":0.5
			}
		},
		{
			"doubleSided":true,
			"name":"Material.014",
			"pbrMetallicRoughness":{
				"baseColorTexture":{
					"index":2
				},
				"metallicFactor":0,
				"roughnessFactor":0.5
			}
		},
		{
			"doubleSided":true,
			"name":"Material.016",
			"pbrMetallicRoughness":{
				"baseColorTexture":{
					"index":3
				},
				"metallicFactor":0,
				"roughnessFactor":0.5
			}
		},
		{
			"doubleSided":true,
			"name":"Material.001",
			"pbrMetallicRoughness":{
				"baseColorTexture":{
					"index":4
				},
				"metallicFactor":0,
				"roughnessFactor":0.7777777910232544
			}
		},
		{
			"doubleSided":true,
			"name":"Material.009",
			"pbrMetallicRoughness":{
				"baseColorTexture":{
					"index":5
				},
				"metallicFactor":0,
				"roughnessFactor":0.5
			}
		}
	],
	"meshes":[
		{
			"name":"Plane",
			"primitives":[
				{
					"attributes":{
						"POSITION":0,
						"NORMAL":1,
						"TEXCOORD_0":2
					},
					"indices":3,
					"material":0
				}
			]
		},
		{
			"name":"Plane.003",
			"primitives":[
				{
					"attributes":{
						"POSITION":4,
						"NORMAL":5,
						"TEXCOORD_0":6
					},
					"indices":3,
					"material":0
				}
			]
		},
		{
			"name":"Plane.004",
			"primitives":[
				{
					"attributes":{
						"POSITION":7,
						"NORMAL":8,
						"TEXCOORD_0":9
					},
					"indices":3,
					"material":0
				}
			]
		},
		{
			"name":"Plane.006",
			"primitives":[
				{
					"attributes":{
						"POSITION":10,
						"NORMAL":11,
						"TEXCOORD_0":12
					},
					"indices":13,
					"material":1
				}
			]
		},
		{
			"name":"Circle",
			"primitives":[
				{
					"attributes":{
						"POSITION":14,
						"NORMAL":15,
						"TEXCOORD_0":16
					},
					"indices":17,
					"material":2
				}
			]
		},
		{
			"name":"Circle.003",
			"primitives":[
				{
					"attributes":{
						"POSITION":18,
						"NORMAL":19,
						"TEXCOORD_0":20
					},
					"indices":21,
					"material":3
				}
			]
		},
		{
			"name":"Cube.040",
			"primitives":[
				{
					"attributes":{
						"POSITION":22,
						"NORMAL":23,
						"TEXCOORD_0":24
					},
					"indices":25,
					"material":4
				}
			]
		},
		{
			"name":"Cylinder.011",
			"primitives":[
				{
					"attributes":{
						"POSITION":26,
						"NORMAL":27,
						"TEXCOORD_0":28
					},
					"indices":29,
					"material":5
				}
			]
		}
	],
	"textures":[
		{
			"sampler":0,
			"source":0
		},
		{
			"sampler":0,
			"source":0
		},
		{
			"sampler":0,
			"source":0
		},
		{
			"sampler":0,
			"source":0
		},
		{
			"sampler":0,
			"source":0
		},
		{
			"sampler":0,
			"source":0
		}
	],
	"images":[
		{
			"mimeType":"image/png",
			"name":"texture",
			"uri":"texture.png"
		}
	],
	"accessors":[
		{
			"bufferView":0,
			"componentType":5126,
			"count":4,
			"max":[
				1,
				0,
				0.05935049057006836
			],
			"min":[
				-1,
				0,
				-1.9406495094299316
			],
			"type":"VEC3"
		},
		{
			"bufferView":1,
			"componentType":5126,
			"count":4,
			"type":"VEC3"
		},
		{
			"bufferView":2,
			"componentType":5126,
			"count":4,
			"type":"VEC2"
		},
		{
			"bufferView":3,
			"componentType":5123,
			"count":6,
			"type":"SCALAR"
		},
		{
			"bufferView":4,
			"componentType":5126,
			"count":4,
			"max":[
				1,
				0,
				0.05935049057006836
			],
			"min":[
				-1,
				0,
				-1.9406495094299316
			],
			"type":"VEC3"
		},
		{
			"bufferView":5,
			"componentType":5126,
			"count":4,
			"type":"VEC3"
		},
		{
			"bufferView":6,
			"componentType":5126,
			"count":4,
			"type":"VEC2"
		},
		{
			"bufferView":7,
			"componentType":5126,
			"count":4,
			"max":[
				1,
				0,
				0.05935049057006836
			],
			"min":[
				-1,
				0,
				-1.9406495094299316
			],
			"type":"VEC3"
		},
		{
			"bufferView":8,
			"componentType":5126,
			"count":4,
			"type":"VEC3"
		},
		{
			"bufferView":9,
			"componentType":5126,
			"count":4,
			"type":"VEC2"
		},
		{
			"bufferView":10,
			"componentType":5126,
			"count":1058,
			"max":[
				0.03224010765552521,
				-0.001511972863227129,
				0.2623642683029175
			],
			"min":[
				-2.6172428131103516,
				-0.18197135627269745,
				-1.7360187768936157
			],
			"type":"VEC3"
		},
		{
			"bufferView":11,
			"componentType":5126,
			"count":1058,
			"type":"VEC3"
		},
		{
			"bufferView":12,
			"componentType":5126,
			"count":1058,
			"type":"VEC2"
		},
		{
			"bufferView":13,
			"componentType":5123,
			"count":6000,
			"type":"SCALAR"
		},
		{
			"bufferView":14,
			"componentType":5126,
			"count":46538,
			"max":[
				0.9553419947624207,
				0.26550284028053284,
				0.9553419947624207
			],
			"min":[
				-0.9553419947624207,
				-0.008260220289230347,
				-0.9553419351577759
			],
			"type":"VEC3"
		},
		{
			"bufferView":15,
			"componentType":5126,
			"count":46538,
			"type":"VEC3"
		},
		{
			"bufferView":16,
			"componentType":5126,
			"count":46538,
			"type":"VEC2"
		},
		{
			"bufferView":17,
			"componentType":5123,
			"count":271440,
			"type":"SCALAR"
		},
		{
			"bufferView":18,
			"componentType":5126,
			"count":2210,
			"max":[
				0.9553419947624207,
				0.0734921395778656,
				0.9553419947624207
			],
			"min":[
				-0.9553419947624207,
				0,
				-0.9553419947624207
			],
			"type":"VEC3"
		},
		{
			"bufferView":19,
			"componentType":5126,
			"count":2210,
			"type":"VEC3"
		},
		{
			"bufferView":20,
			"componentType":5126,
			"count":2210,
			"type":"VEC2"
		},
		{
			"bufferView":21,
			"componentType":5123,
			"count":13248,
			"type":"SCALAR"
		},
		{
			"bufferView":22,
			"componentType":5126,
			"count":567,
			"max":[
				5.746824264526367,
				2.7988743782043457,
				3.5355331897735596
			],
			"min":[
				-7.225114822387695,
				-0.04595358669757843,
				-4.054272651672363
			],
			"type":"VEC3"
		},
		{
			"bufferView":23,
			"componentType":5126,
			"count":567,
			"type":"VEC3"
		},
		{
			"bufferView":24,
			"componentType":5126,
			"count":567,
			"type":"VEC2"
		},
		{
			"bufferView":25,
			"componentType":5123,
			"count":2208,
			"type":"SCALAR"
		},
		{
			"bufferView":26,
			"componentType":5126,
			"count":1387,
			"max":[
				4.979317665100098,
				4.897887229919434,
				4.979318141937256
			],
			"min":[
				-4.979316711425781,
				-0.06891423463821411,
				-4.8883748054504395
			],
			"type":"VEC3"
		},
		{
			"bufferView":27,
			"componentType":5126,
			"count":1387,
			"type":"VEC3"
		},
		{
			"bufferView":28,
			"componentType":5126,
			"count":1387,
			"type":"VEC2"
		},
		{
			"bufferView":29,
			"componentType":5123,
			"count":7158,
			"type":"SCALAR"
		},
		{
			"bufferView":30,
			"componentType":5126,
			"count":180,
			"max":[
				7.5
			],
			"min":[
				0.041666666666666664
			],
			"type":"SCALAR"
		},
		{
			"bufferView":31,
			"componentType":5126,
			"count":180,
			"type":"VEC3"
		},
		{
			"bufferView":32,
			"componentType":5126,
			"count":180,
			"type":"VEC4"
		},
		{
			"bufferView":33,
			"componentType":5126,
			"count":180,
			"type":"VEC3"
		},
		{
			"bufferView":34,
			"componentType":5126,
			"count":86,
			"max":[
				4.375
			],
			"min":[
				0.8333333333333334
			],
			"type":"SCALAR"
		},
		{
			"bufferView":35,
			"componentType":5126,
			"count":86,
			"type":"VEC3"
		},
		{
			"bufferView":36,
			"componentType":5126,
			"count":86,
			"type":"VEC4"
		},
		{
			"bufferView":37,
			"componentType":5126,
			"count":86,
			"type":"VEC3"
		},
		{
			"bufferView":38,
			"componentType":5126,
			"count":84,
			"max":[
				5.541666666666667
			],
			"min":[
				2.0833333333333335
			],
			"type":"SCALAR"
		},
		{
			"bufferView":39,
			"componentType":5126,
			"count":84,
			"type":"VEC3"
		},
		{
			"bufferView":40,
			"componentType":5126,
			"count":84,
			"type":"VEC4"
		},
		{
			"bufferView":41,
			"componentType":5126,
			"count":84,
			"type":"VEC3"
		},
		{
			"bufferView":42,
			"componentType":5126,
			"count":1,
			"max":[
				0.08333333333333333
			],
			"min":[
				0.08333333333333333
			],
			"type":"SCALAR"
		},
		{
			"bufferView":43,
			"componentType":5126,
			"count":1,
			"type":"VEC3"
		},
		{
			"bufferView":44,
			"componentType":5126,
			"count":1,
			"type":"VEC4"
		},
		{
			"bufferView":45,
			"componentType":5126,
			"count":1,
			"type":"VEC3"
		},
		{
			"bufferView":46,
			"componentType":5126,
			"count":2,
			"max":[
				1.125
			],
			"min":[
				0.125
			],
			"type":"SCALAR"
		},
		{
			"bufferView":47,
			"componentType":5126,
			"count":2,
			"type":"VEC3"
		},
		{
			"bufferView":48,
			"componentType":5126,
			"count":25,
			"max":[
				1.125
			],
			"min":[
				0.125
			],
			"type":"SCALAR"
		},
		{
			"bufferView":49,
			"componentType":5126,
			"count":25,
			"type":"VEC4"
		},
		{
			"bufferView":50,
			"componentType":5126,
			"count":25,
			"type":"VEC3"
		},
		{
			"bufferView":51,
			"componentType":5126,
			"count":1,
			"max":[
				0.25
			],
			"min":[
				0.25
			],
			"type":"SCALAR"
		},
		{
			"bufferView":52,
			"componentType":5126,
			"count":1,
			"type":"VEC3"
		},
		{
			"bufferView":53,
			"componentType":5126,
			"count":1,
			"type":"VEC4"
		},
		{
			"bufferView":54,
			"componentType":5126,
			"count":1,
			"type":"VEC3"
		},
		{
			"bufferView":55,
			"componentType":5126,
			"count":1,
			"max":[
				0
			],
			"min":[
				0
			],
			"type":"SCALAR"
		},
		{
			"bufferView":56,
			"componentType":5126,
			"count":1,
			"type":"VEC3"
		},
		{
			"bufferView":57,
			"componentType":5126,
			"count":1,
			"type":"VEC4"
		},
		{
			"bufferView":58,
			"componentType":5126,
			"count":1,
			"type":"VEC3"
		},
		{
			"bufferView":59,
			"componentType":5126,
			"count":2,
			"max":[
				5.833333333333333
			],
			"min":[
				0
			],
			"type":"SCALAR"
		},
		{
			"bufferView":60,
			"componentType":5126,
			"count":2,
			"type":"VEC3"
		},
		{
			"bufferView":61,
			"componentType":5126,
			"count":141,
			"max":[
				5.833333333333333
			],
			"min":[
				0
			],
			"type":"SCALAR"
		},
		{
			"bufferView":62,
			"componentType":5126,
			"count":141,
			"type":"VEC4"
		},
		{
			"bufferView":63,
			"componentType":5126,
			"count":2,
			"type":"VEC3"
		},
		{
			"bufferView":64,
			"componentType":5126,
			"count":2,
			"type":"VEC3"
		},
		{
			"bufferView":65,
			"componentType":5126,
			"count":141,
			"type":"VEC4"
		},
		{
			"bufferView":66,
			"componentType":5126,
			"count":2,
			"type":"VEC3"
		}
	],
	"bufferViews":[
		{
			"buffer":0,
			"byteLength":48,
			"byteOffset":0,
			"target":34962
		},
		{
			"buffer":0,
			"byteLength":48,
			"byteOffset":48,
			"target":34962
		},
		{
			"buffer":0,
			"byteLength":32,
			"byteOffset":96,
			"target":34962
		},
		{
			"buffer":0,
			"byteLength":12,
			"byteOffset":128,
			"target":34963
		},
		{
			"buffer":0,
			"byteLength":48,
			"byteOffset":140,
			"target":34962
		},
		{
			"buffer":0,
			"byteLength":48,
			"byteOffset":188,
			"target":34962
		},
		{
			"buffer":0,
			"byteLength":32,
			"byteOffset":236,
			"target":34962
		},
		{
			"buffer":0,
			"byteLength":48,
			"byteOffset":268,
			"target":34962
		},
		{
			"buffer":0,
			"byteLength":48,
			"byteOffset":316,
			"target":34962
		},
		{
			"buffer":0,
			"byteLength":32,
			"byteOffset":364,
			"target":34962
		},
		{
			"buffer":0,
			"byteLength":12696,
			"byteOffset":396,
			"target":34962
		},
		{
			"buffer":0,
			"byteLength":12696,
			"byteOffset":13092,
			"target":34962
		},
		{
			"buffer":0,
			"byteLength":8464,
			"byteOffset":25788,
			"target":34962
		},
		{
			"buffer":0,
			"byteLength":12000,
			"byteOffset":34252,
			"target":34963
		},
		{
			"buffer":0,
			"byteLength":558456,
			"byteOffset":46252,
			"target":34962
		},
		{
			"buffer":0,
			"byteLength":558456,
			"byteOffset":604708,
			"target":34962
		},
		{
			"buffer":0,
			"byteLength":372304,
			"byteOffset":1163164,
			"target":34962
		},
		{
			"buffer":0,
			"byteLength":542880,
			"byteOffset":1535468,
			"target":34963
		},
		{
			"buffer":0,
			"byteLength":26520,
			"byteOffset":2078348,
			"target":34962
		},
		{
			"buffer":0,
			"byteLength":26520,
			"byteOffset":2104868,
			"target":34962
		},
		{
			"buffer":0,
			"byteLength":17680,
			"byteOffset":2131388,
			"target":34962
		},
		{
			"buffer":0,
			"byteLength":26496,
			"byteOffset":2149068,
			"target":34963
		},
		{
			"buffer":0,
			"byteLength":6804,
			"byteOffset":2175564,
			"target":34962
		},
		{
			"buffer":0,
			"byteLength":6804,
			"byteOffset":2182368,
			"target":34962
		},
		{
			"buffer":0,
			"byteLength":4536,
			"byteOffset":2189172,
			"target":34962
		},
		{
			"buffer":0,
			"byteLength":4416,
			"byteOffset":2193708,
			"target":34963
		},
		{
			"buffer":0,
			"byteLength":16644,
			"byteOffset":2198124,
			"target":34962
		},
		{
			"buffer":0,
			"byteLength":16644,
			"byteOffset":2214768,
			"target":34962
		},
		{
			"buffer":0,
			"byteLength":11096,
			"byteOffset":2231412,
			"target":34962
		},
		{
			"buffer":0,
			"byteLength":14316,
			"byteOffset":2242508,
			"target":34963
		},
		{
			"buffer":0,
			"byteLength":720,
			"byteOffset":2256824
		},
		{
			"buffer":0,
			"byteLength":2160,
			"byteOffset":2257544
		},
		{
			"buffer":0,
			"byteLength":2880,
			"byteOffset":2259704
		},
		{
			"buffer":0,
			"byteLength":2160,
			"byteOffset":2262584
		},
		{
			"buffer":0,
			"byteLength":344,
			"byteOffset":2264744
		},
		{
			"buffer":0,
			"byteLength":1032,
			"byteOffset":2265088
		},
		{
			"buffer":0,
			"byteLength":1376,
			"byteOffset":2266120
		},
		{
			"buffer":0,
			"byteLength":1032,
			"byteOffset":2267496
		},
		{
			"buffer":0,
			"byteLength":336,
			"byteOffset":2268528
		},
		{
			"buffer":0,
			"byteLength":1008,
			"byteOffset":2268864
		},
		{
			"buffer":0,
			"byteLength":1344,
			"byteOffset":2269872
		},
		{
			"buffer":0,
			"byteLength":1008,
			"byteOffset":2271216
		},
		{
			"buffer":0,
			"byteLength":4,
			"byteOffset":2272224
		},
		{
			"buffer":0,
			"byteLength":12,
			"byteOffset":2272228
		},
		{
			"buffer":0,
			"byteLength":16,
			"byteOffset":2272240
		},
		{
			"buffer":0,
			"byteLength":12,
			"byteOffset":2272256
		},
		{
			"buffer":0,
			"byteLength":8,
			"byteOffset":2272268
		},
		{
			"buffer":0,
			"byteLength":24,
			"byteOffset":2272276
		},
		{
			"buffer":0,
			"byteLength":100,
			"byteOffset":2272300
		},
		{
			"buffer":0,
			"byteLength":400,
			"byteOffset":2272400
		},
		{
			"buffer":0,
			"byteLength":300,
			"byteOffset":2272800
		},
		{
			"buffer":0,
			"byteLength":4,
			"byteOffset":2273100
		},
		{
			"buffer":0,
			"byteLength":12,
			"byteOffset":2273104
		},
		{
			"buffer":0,
			"byteLength":16,
			"byteOffset":2273116
		},
		{
			"buffer":0,
			"byteLength":12,
			"byteOffset":2273132
		},
		{
			"buffer":0,
			"byteLength":4,
			"byteOffset":2273144
		},
		{
			"buffer":0,
			"byteLength":12,
			"byteOffset":2273148
		},
		{
			"buffer":0,
			"byteLength":16,
			"byteOffset":2273160
		},
		{
			"buffer":0,
			"byteLength":12,
			"byteOffset":2273176
		},
		{
			"buffer":0,
			"byteLength":8,
			"byteOffset":2273188
		},
		{
			"buffer":0,
			"byteLength":24,
			"byteOffset":2273196
		},
		{
			"buffer":0,
			"byteLength":564,
			"byteOffset":2273220
		},
		{
			"buffer":0,
			"byteLength":2256,
			"byteOffset":2273784
		},
		{
			"buffer":0,
			"byteLength":24,
			"byteOffset":2276040
		},
		{
			"buffer":0,
			"byteLength":24,
			"byteOffset":2276064
		},
		{
			"buffer":0,
			"byteLength":2256,
			"byteOffset":2276088
		},
		{
			"buffer":0,
			"byteLength":24,
			"byteOffset":2278344
		}
	],
	"samplers":[
		{
			"magFilter":9729,
			"minFilter":9987
		}
	],
	"buffers":[
		{
			"byteLength":2278368,
			"uri":"web1.bin"
		}
	]
}
